<?xml version="1.0" encoding="UTF-8"?>
<svg width="700pt" height="700pt" version="1.1" viewBox="0 0 700 700" xmlns="http://www.w3.org/2000/svg" xmlns:xlink="http://www.w3.org/1999/xlink">
 <defs>
  <symbol id="v" overflow="visible">
   <path d="m18.766-1.125c-0.96875 0.5-1.9805 0.875-3.0312 1.125-1.043 0.25781-2.1367 0.39062-3.2812 0.39062-3.3984 0-6.0898-0.94531-8.0781-2.8438-1.9922-1.9062-2.9844-4.4844-2.9844-7.7344 0-3.2578 0.99219-5.8359 2.9844-7.7344 1.9883-1.9062 4.6797-2.8594 8.0781-2.8594 1.1445 0 2.2383 0.13281 3.2812 0.39062 1.0508 0.25 2.0625 0.625 3.0312 1.125v4.2188c-0.98047-0.65625-1.9453-1.1406-2.8906-1.4531-0.94922-0.3125-1.9492-0.46875-3-0.46875-1.875 0-3.3516 0.60547-4.4219 1.8125-1.0742 1.1992-1.6094 2.8555-1.6094 4.9688 0 2.1055 0.53516 3.7617 1.6094 4.9688 1.0703 1.1992 2.5469 1.7969 4.4219 1.7969 1.0508 0 2.0508-0.14844 3-0.45312 0.94531-0.3125 1.9102-0.80078 2.8906-1.4688z"/>
  </symbol>
  <symbol id="b" overflow="visible">
   <path d="m13.734-11.141c-0.4375-0.19531-0.87109-0.34375-1.2969-0.4375-0.41797-0.10156-0.83984-0.15625-1.2656-0.15625-1.2617 0-2.2305 0.40625-2.9062 1.2188-0.67969 0.80469-1.0156 1.9531-1.0156 3.4531v7.0625h-4.8906v-15.312h4.8906v2.5156c0.625-1 1.3438-1.7266 2.1562-2.1875 0.82031-0.46875 1.8008-0.70312 2.9375-0.70312 0.16406 0 0.34375 0.011719 0.53125 0.03125 0.19531 0.011719 0.47656 0.039062 0.84375 0.078125z"/>
  </symbol>
  <symbol id="a" overflow="visible">
   <path d="m17.641-7.7031v1.4062h-11.453c0.125 1.1484 0.53906 2.0078 1.25 2.5781 0.70703 0.57422 1.7031 0.85938 2.9844 0.85938 1.0312 0 2.082-0.14844 3.1562-0.45312 1.082-0.3125 2.1914-0.77344 3.3281-1.3906v3.7656c-1.1562 0.4375-2.3125 0.76562-3.4688 0.98438-1.1562 0.22656-2.3125 0.34375-3.4688 0.34375-2.7734 0-4.9297-0.70312-6.4688-2.1094-1.5312-1.4062-2.2969-3.3789-2.2969-5.9219 0-2.5 0.75391-4.4609 2.2656-5.8906 1.5078-1.4375 3.582-2.1562 6.2188-2.1562 2.4062 0 4.332 0.73047 5.7812 2.1875 1.4453 1.4492 2.1719 3.3828 2.1719 5.7969zm-5.0312-1.625c0-0.92578-0.27344-1.6719-0.8125-2.2344-0.54297-0.57031-1.25-0.85938-2.125-0.85938-0.94922 0-1.7188 0.26562-2.3125 0.79688s-0.96484 1.2969-1.1094 2.2969z"/>
  </symbol>
  <symbol id="e" overflow="visible">
   <path d="m9.2188-6.8906c-1.0234 0-1.793 0.17188-2.3125 0.51562-0.51172 0.34375-0.76562 0.85547-0.76562 1.5312 0 0.625 0.20703 1.1172 0.625 1.4688 0.41406 0.34375 0.98828 0.51562 1.7188 0.51562 0.92578 0 1.7031-0.32812 2.3281-0.98438 0.63281-0.66406 0.95312-1.4922 0.95312-2.4844v-0.5625zm7.4688-1.8438v8.7344h-4.9219v-2.2656c-0.65625 0.92969-1.3984 1.6055-2.2188 2.0312-0.82422 0.41406-1.8242 0.625-3 0.625-1.5859 0-2.8711-0.45703-3.8594-1.375-0.99219-0.92578-1.4844-2.1289-1.4844-3.6094 0-1.7891 0.61328-3.1016 1.8438-3.9375 1.2383-0.84375 3.1797-1.2656 5.8281-1.2656h2.8906v-0.39062c0-0.76953-0.30859-1.332-0.92188-1.6875-0.61719-0.36328-1.5703-0.54688-2.8594-0.54688-1.0547 0-2.0312 0.10547-2.9375 0.3125-0.89844 0.21094-1.7305 0.52344-2.5 0.9375v-3.7344c1.0391-0.25 2.0859-0.44141 3.1406-0.57812 1.0625-0.13281 2.125-0.20312 3.1875-0.20312 2.7578 0 4.75 0.54688 5.9688 1.6406 1.2266 1.0859 1.8438 2.8555 1.8438 5.3125z"/>
  </symbol>
  <symbol id="d" overflow="visible">
   <path d="m7.7031-19.656v4.3438h5.0469v3.5h-5.0469v6.5c0 0.71094 0.14062 1.1875 0.42188 1.4375s0.83594 0.375 1.6719 0.375h2.5156v3.5h-4.1875c-1.9375 0-3.3125-0.39844-4.125-1.2031-0.80469-0.8125-1.2031-2.1797-1.2031-4.1094v-6.5h-2.4219v-3.5h2.4219v-4.3438z"/>
  </symbol>
  <symbol id="k" overflow="visible">
   <path d="m12.766-13.078v-8.2031h4.9219v21.281h-4.9219v-2.2188c-0.66797 0.90625-1.4062 1.5703-2.2188 1.9844s-1.7578 0.625-2.8281 0.625c-1.8867 0-3.4336-0.75-4.6406-2.25-1.2109-1.5-1.8125-3.4258-1.8125-5.7812 0-2.3633 0.60156-4.2969 1.8125-5.7969 1.207-1.5 2.7539-2.25 4.6406-2.25 1.0625 0 2 0.21484 2.8125 0.64062 0.82031 0.42969 1.5664 1.0859 2.2344 1.9688zm-3.2188 9.9219c1.0391 0 1.8359-0.37891 2.3906-1.1406 0.55078-0.76953 0.82812-1.8828 0.82812-3.3438 0-1.457-0.27734-2.5664-0.82812-3.3281-0.55469-0.76953-1.3516-1.1562-2.3906-1.1562-1.043 0-1.8398 0.38672-2.3906 1.1562-0.55469 0.76172-0.82812 1.8711-0.82812 3.3281 0 1.4609 0.27344 2.5742 0.82812 3.3438 0.55078 0.76172 1.3477 1.1406 2.3906 1.1406z"/>
  </symbol>
  <symbol id="j" overflow="visible">
   <path d="m10.5-3.1562c1.0508 0 1.8516-0.37891 2.4062-1.1406 0.55078-0.76953 0.82812-1.8828 0.82812-3.3438 0-1.457-0.27734-2.5664-0.82812-3.3281-0.55469-0.76953-1.3555-1.1562-2.4062-1.1562-1.0547 0-1.8594 0.38672-2.4219 1.1562-0.55469 0.77344-0.82812 1.8828-0.82812 3.3281 0 1.4492 0.27344 2.5586 0.82812 3.3281 0.5625 0.77344 1.3672 1.1562 2.4219 1.1562zm-3.25-9.9219c0.67578-0.88281 1.4219-1.5391 2.2344-1.9688 0.82031-0.42578 1.7656-0.64062 2.8281-0.64062 1.8945 0 3.4453 0.75 4.6562 2.25 1.207 1.5 1.8125 3.4336 1.8125 5.7969 0 2.3555-0.60547 4.2812-1.8125 5.7812-1.2109 1.5-2.7617 2.25-4.6562 2.25-1.0625 0-2.0078-0.21094-2.8281-0.625-0.8125-0.42578-1.5586-1.0859-2.2344-1.9844v2.2188h-4.8906v-21.281h4.8906z"/>
  </symbol>
  <symbol id="c" overflow="visible">
   <path d="m0.34375-15.312h4.8906l4.125 10.391 3.5-10.391h4.8906l-6.4375 16.766c-0.64844 1.6953-1.4023 2.8828-2.2656 3.5625-0.86719 0.6875-2 1.0312-3.4062 1.0312h-2.8438v-3.2188h1.5312c0.83203 0 1.4375-0.13672 1.8125-0.40625 0.38281-0.26172 0.67969-0.73047 0.89062-1.4062l0.14062-0.42188z"/>
  </symbol>
  <symbol id="i" overflow="visible">
   <path d="m2.5781-20.406h5.25v7.7656h7.7656v-7.7656h5.2656v20.406h-5.2656v-8.6562h-7.7656v8.6562h-5.25z"/>
  </symbol>
  <symbol id="u" overflow="visible">
   <path d="m2.3594-21.281h4.8906v21.281h-4.8906z"/>
  </symbol>
  <symbol id="t" overflow="visible">
   <path d="m2.5781-20.406h6.6875l4.6562 10.922 4.6719-10.922h6.6875v20.406h-4.9844v-14.938l-4.7031 11.016h-3.3281l-4.7031-11.016v14.938h-4.9844z"/>
  </symbol>
  <symbol id="h" overflow="visible">
   <path d="m14.719-14.828v3.9844c-0.65625-0.45703-1.3242-0.79688-2-1.0156-0.66797-0.21875-1.3594-0.32812-2.0781-0.32812-1.3672 0-2.4336 0.40234-3.2031 1.2031-0.76172 0.79297-1.1406 1.9062-1.1406 3.3438 0 1.4297 0.37891 2.543 1.1406 3.3438 0.76953 0.79297 1.8359 1.1875 3.2031 1.1875 0.75781 0 1.4844-0.10938 2.1719-0.32812 0.6875-0.22656 1.3203-0.56641 1.9062-1.0156v4c-0.76172 0.28125-1.5391 0.48828-2.3281 0.625-0.78125 0.14453-1.5742 0.21875-2.375 0.21875-2.7617 0-4.9219-0.70703-6.4844-2.125-1.5547-1.4141-2.3281-3.3828-2.3281-5.9062 0-2.5312 0.77344-4.5039 2.3281-5.9219 1.5625-1.4141 3.7227-2.125 6.4844-2.125 0.80078 0 1.5938 0.074219 2.375 0.21875 0.78125 0.13672 1.5547 0.35156 2.3281 0.64062z"/>
  </symbol>
  <symbol id="s" overflow="visible">
   <path d="m2.5781-20.406h5.25v16.422h9.25v3.9844h-14.5z"/>
  </symbol>
  <symbol id="g" overflow="visible">
   <path d="m17.75-9.3281v9.3281h-4.9219v-7.1406c0-1.3203-0.03125-2.2344-0.09375-2.7344s-0.16797-0.86719-0.3125-1.1094c-0.1875-0.3125-0.44922-0.55469-0.78125-0.73438-0.32422-0.17578-0.69531-0.26562-1.1094-0.26562-1.0234 0-1.8242 0.39844-2.4062 1.1875-0.58594 0.78125-0.875 1.8711-0.875 3.2656v7.5312h-4.8906v-15.312h4.8906v2.2344c0.73828-0.88281 1.5195-1.5391 2.3438-1.9688 0.83203-0.42578 1.75-0.64062 2.75-0.64062 1.7695 0 3.1133 0.54688 4.0312 1.6406 0.91406 1.0859 1.375 2.6562 1.375 4.7188z"/>
  </symbol>
  <symbol id="r" overflow="visible">
   <path d="m12.422-21.281v3.2188h-2.7031c-0.6875 0-1.1719 0.125-1.4531 0.375-0.27344 0.25-0.40625 0.6875-0.40625 1.3125v1.0625h4.1875v3.5h-4.1875v11.812h-4.8906v-11.812h-2.4375v-3.5h2.4375v-1.0625c0-1.6641 0.46094-2.8984 1.3906-3.7031 0.92578-0.80078 2.3672-1.2031 4.3281-1.2031z"/>
  </symbol>
  <symbol id="f" overflow="visible">
   <path d="m9.6406-12.188c-1.0859 0-1.9141 0.39062-2.4844 1.1719-0.57422 0.78125-0.85938 1.9062-0.85938 3.375s0.28516 2.5938 0.85938 3.375c0.57031 0.77344 1.3984 1.1562 2.4844 1.1562 1.0625 0 1.875-0.38281 2.4375-1.1562 0.57031-0.78125 0.85938-1.9062 0.85938-3.375s-0.28906-2.5938-0.85938-3.375c-0.5625-0.78125-1.375-1.1719-2.4375-1.1719zm0-3.5c2.6328 0 4.6914 0.71484 6.1719 2.1406 1.4766 1.418 2.2188 3.3867 2.2188 5.9062 0 2.5117-0.74219 4.4805-2.2188 5.9062-1.4805 1.418-3.5391 2.125-6.1719 2.125-2.6484 0-4.7148-0.70703-6.2031-2.125-1.4922-1.4258-2.2344-3.3945-2.2344-5.9062 0-2.5195 0.74219-4.4883 2.2344-5.9062 1.4883-1.4258 3.5547-2.1406 6.2031-2.1406z"/>
  </symbol>
  <symbol id="q" overflow="visible">
   <path d="m16.547-12.766c0.61328-0.94531 1.3477-1.6719 2.2031-2.1719 0.85156-0.5 1.7891-0.75 2.8125-0.75 1.7578 0 3.0977 0.54688 4.0156 1.6406 0.92578 1.0859 1.3906 2.6562 1.3906 4.7188v9.3281h-4.9219v-7.9844-0.35938c0.007813-0.13281 0.015625-0.32031 0.015625-0.5625 0-1.082-0.16406-1.8633-0.48438-2.3438-0.3125-0.48828-0.82422-0.73438-1.5312-0.73438-0.92969 0-1.6484 0.38672-2.1562 1.1562-0.51172 0.76172-0.77344 1.8672-0.78125 3.3125v7.5156h-4.9219v-7.9844c0-1.6953-0.14844-2.7852-0.4375-3.2656-0.29297-0.48828-0.8125-0.73438-1.5625-0.73438-0.9375 0-1.6641 0.38672-2.1719 1.1562-0.51172 0.76172-0.76562 1.8594-0.76562 3.2969v7.5312h-4.9219v-15.312h4.9219v2.2344c0.60156-0.86328 1.2891-1.5156 2.0625-1.9531 0.78125-0.4375 1.6406-0.65625 2.5781-0.65625 1.0625 0 2 0.25781 2.8125 0.76562 0.8125 0.51172 1.4258 1.2305 1.8438 2.1562z"/>
  </symbol>
  <symbol id="p" overflow="visible">
   <path d="m17.75-9.3281v9.3281h-4.9219v-7.1094c0-1.3438-0.03125-2.2656-0.09375-2.7656s-0.16797-0.86719-0.3125-1.1094c-0.1875-0.3125-0.44922-0.55469-0.78125-0.73438-0.32422-0.17578-0.69531-0.26562-1.1094-0.26562-1.0234 0-1.8242 0.39844-2.4062 1.1875-0.58594 0.78125-0.875 1.8711-0.875 3.2656v7.5312h-4.8906v-21.281h4.8906v8.2031c0.73828-0.88281 1.5195-1.5391 2.3438-1.9688 0.83203-0.42578 1.75-0.64062 2.75-0.64062 1.7695 0 3.1133 0.54688 4.0312 1.6406 0.91406 1.0859 1.375 2.6562 1.375 4.7188z"/>
  </symbol>
  <symbol id="o" overflow="visible">
   <path d="m2.5781-20.406h5.875l7.4219 14v-14h4.9844v20.406h-5.875l-7.4219-14v14h-4.9844z"/>
  </symbol>
  <symbol id="n" overflow="visible">
   <path d="m2.1875-5.9688v-9.3438h4.9219v1.5312c0 0.83594-0.007813 1.875-0.015625 3.125-0.011719 1.25-0.015625 2.0859-0.015625 2.5 0 1.2422 0.03125 2.1328 0.09375 2.6719 0.070313 0.54297 0.17969 0.93359 0.32812 1.1719 0.20703 0.32422 0.47266 0.57422 0.79688 0.75 0.32031 0.16797 0.69141 0.25 1.1094 0.25 1.0195 0 1.8203-0.39062 2.4062-1.1719 0.58203-0.78125 0.875-1.8672 0.875-3.2656v-7.5625h4.8906v15.312h-4.8906v-2.2188c-0.74219 0.89844-1.5234 1.5586-2.3438 1.9844-0.82422 0.41406-1.7344 0.625-2.7344 0.625-1.7617 0-3.1055-0.53906-4.0312-1.625-0.92969-1.082-1.3906-2.6602-1.3906-4.7344z"/>
  </symbol>
  <symbol id="m" overflow="visible">
   <path d="m2.5781-20.406h8.7344c2.5938 0 4.582 0.57812 5.9688 1.7344 1.3945 1.1484 2.0938 2.7891 2.0938 4.9219 0 2.1367-0.69922 3.7812-2.0938 4.9375-1.3867 1.1562-3.375 1.7344-5.9688 1.7344h-3.4844v7.0781h-5.25zm5.25 3.8125v5.7031h2.9219c1.0195 0 1.8047-0.25 2.3594-0.75 0.5625-0.5 0.84375-1.2031 0.84375-2.1094 0-0.91406-0.28125-1.6172-0.84375-2.1094-0.55469-0.48828-1.3398-0.73438-2.3594-0.73438z"/>
  </symbol>
  <symbol id="l" overflow="visible">
   <path d="m2.3594-15.312h4.8906v15.031c0 2.0508-0.49609 3.6172-1.4844 4.7031-0.98047 1.082-2.4062 1.625-4.2812 1.625h-2.4219v-3.2188h0.85938c0.92578 0 1.5625-0.21094 1.9062-0.625 0.35156-0.41797 0.53125-1.2461 0.53125-2.4844zm0-5.9688h4.8906v4h-4.8906z"/>
  </symbol>
 </defs>
 <g>
  <path d="m449.23 99.793c-0.023438-3.1875-1.4844-6.1914-3.9727-8.1758-1.8047-1.1758-3.8984-1.8164-6.0508-1.8477-0.83984-8.457-3.0234-17.863-11.426-20.215l0.003906-0.003907c-9.5469-18.562-26.418-32.289-46.539-37.855-7.0156-2.3242-14.508-2.8438-21.781-1.5117-6.8789-3.7031-14.172-6.582-21.73-8.5664-5.1289-3.4609-11.172-5.3125-17.359-5.3203-4.6055-0.14453-9.1328 1.2305-12.879 3.918-0.46484 0.17578-0.96094 0.25391-1.457 0.22656l-0.83984-0.058594c-6.2227-2.1211-12.742-3.2539-19.32-3.3594-11.48 0.09375-22.406 4.9375-30.184 13.383-8.1758 3.1367-22.121 10.078-25.367 21.449-1.5312 5.4062-0.52344 11.219 2.7422 15.793-1.7109 3.8281-3.6562 7.5508-5.8242 11.145-1.3984 0.83984-2.5742 1.5664-3.6953 2.2383-10.809 6.6094-11.762 8.9609-17.473 32.09-9.5938 5.7031-15.582 15.941-15.848 27.102 0.55859 10.242 6.3047 19.488 15.234 24.531 2.0039 6.3633 2.1211 13.168 0.33594 19.598-1.7969 6.3867-2.0273 13.109-0.67188 19.602-5.1523 16.184-5.6016 25.367-1.5664 31.809h-0.003906c1.5703 2.4844 3.8555 4.4336 6.5547 5.5977-1.1719 6.3555-0.72656 12.902 1.2852 19.039l-0.33594 1.1758c-3.2461 11.648-5.6016 20.047 42.168 82.039v0.003907c-2.25 12.375-5.7383 24.496-10.414 36.176-8.1758 7.2227-9.2969 8.5664-10.695 12.992-10.922 4.3672-12.266 13.383-10.754 28.336-7.4492 24.473 5.543 35 20.832 42.727 2.6875 2.9219 5.6914 5.5352 8.9609 7.7852-3.9844 14.418-6.9062 29.109-8.7344 43.957l0.22266 2.7422 2.2969 1.2305c18.312 9.7422 58.969 10.809 75.602 10.809 30.016 0 59.414-2.9688 71.398-7.2812 21.953-7.7852 23.688-9.8008 23.238-13.887v0.003906c-0.042969-0.52344-0.17578-1.0312-0.39062-1.5117l-0.28125-3.9766 1.9609-1.457-1.1211-4.7031c2.6094-3 3.2227-7.2461 1.5703-10.863l-0.39062-0.78516-1.0078-0.95312c-9.7422-7.2227-14.559-12.938-14.785-17.246 0.22266-7.5039 6.7188-48.105 14.223-89.207 1.3594 0.62109 2.6875 1.3125 3.9766 2.0703 2.668 1.7734 5.7617 2.7969 8.957 2.9688 6.2539-0.16406 12.004-3.4688 15.289-8.793l1.0078-2.1289-1.0078-1.793c-0.39062-4.3125 12.879-31.246 18.762-43.176 8.0078-6.2148 19.32-36.793 17.809-62.551l-0.28125-1.457-0.83984-0.95312v0.003906c-0.87891-2.0312-0.73437-4.3633 0.39063-6.2734 2.5195-4.3125 9.5195-29.961-1.457-77.336 5.4414-6.7383 7.8008-15.457 6.4961-24.023 4.6328-3.5 7.3516-8.9766 7.3359-14.781v-0.67188c-0.50391-13.723-14.672-27.16-42.168-39.816zm-49.281 410.26c-2.6328 1.1211-6.2734 2.4648-11.145 4.1992-11.199 3.9766-39.312 6.7773-68.375 6.7773-30.688 0-55.383-3.0234-68.152-8.3984l0.003906-0.003906c1.7578-12.617 4.3008-25.109 7.6133-37.41 0.74219 0.125 1.4922 0.19922 2.2422 0.22656 2.0156 1.3828 3.9258 2.918 5.7109 4.5898 7.8945 6.8867 17.695 15.457 48.609 18.426 4.8828 1.2109 8.8711 4.7188 10.695 9.4062l0.33594 1.3984 0.89453 0.89453c1.0625 1.0625 3.8633 3.9766 20.328 3.9766 13.832 0 40.711-2.6328 56.449-9.5195l0.22266 3.0781c-1.0625 0.56641-2.7422 1.293-5.4297 2.3555zm6.832-139.21-0.22266 1.0625v0.33594c-7.2812 39.312-14.895 85.734-15.23 95.594 0.39062 7.5039 5.6562 14.727 16.969 23.465v-0.003907c-0.66016 1.0625-1.5859 1.9297-2.6875 2.5195-10.023 6.5508-37.855 10.977-57.566 10.977h-0.003907c-4.0977 0.19141-8.2031-0.16797-12.207-1.0664-3.2031-7.1172-9.4648-12.391-17.023-14.336l-0.83984-0.16797c-28.449-2.7422-37.074-10.246-44.016-16.352-2.5156-2.3594-5.2734-4.4453-8.2344-6.2148l-2.3516-0.55859c-2.5742-0.11328-6.5508-0.28125-15.457-9.8008l-0.78516-0.50391c-15.121-7.5039-22.176-14.953-16.406-32.984l0.22266-0.89453-0.11328-0.78516c-1.793-16.969 0.78516-18.426 7-20.328l1.9023-1.0078 0.61719-1.793c0.33594-0.89453 0.55859-1.625 0.72656-2.2383 0.72656-2.4648 0.78516-2.6328 8.9023-9.8008l0.95313-1.2305 0.007812-0.003906c5.4727-13.055 9.4375-26.695 11.816-40.656l0.44922-0.95312-0.16797-0.72656h-0.003906c3.2734-17.348 5.3867-34.895 6.3281-52.527 5.5664 16.094 14.676 30.734 26.656 42.84 16.477 15.832 38.859 23.984 61.656 22.457 21.207-0.87891 41.383-9.3672 56.84-23.914-2.2383 10.586-4.8711 24.137-7.7266 39.594zm-145.99-104.33c-5.3203-0.78516-7.1133-2.1289-7.7266-3.4141h-0.003906c2.7852-3.0508 5.0547-6.5312 6.7227-10.305 0.33594 2.1289 0.72656 4.1445 1.0625 6.1055 0 2.5742 0 5.1484-0.054687 7.6133zm150.3 54.711c-14 14.93-33.312 23.742-53.762 24.527-20.254 1.4375-40.172-5.7617-54.824-19.82-33.992-32.816-36.23-96.488-36.398-103.43 2.0938-11.652 3.2891-23.445 3.582-35.281-0.76172-21.648 8.7734-42.375 25.703-55.887 10.441-9.0664 22.785-15.668 36.121-19.32 1.5156 1.7109 3.6094 2.8086 5.8789 3.0781 3.3125 0.23828 6.5703-0.94141 8.9609-3.2461 29.289 4.1445 57.062 19.434 67.703 37.406 6.2578 11.586 9.2383 24.652 8.625 37.801-0.125 2.2148 0.023438 4.4336 0.44922 6.6094 0.16797 0.61719 0.44922 1.5664 0.83984 2.8008 4.5625 13.875 7.2188 28.305 7.8945 42.895 0.83984 10.402 0.74609 20.863-0.27734 31.25-1.332 18.609-8.5039 36.328-20.496 50.621zm-60.648-218.29c2.0703-8.0078 5.4336-12.77 9.4648-13.609 8.0625-1.5664 19.824 8.9023 31.863 27.887-12.863-7.0781-26.84-11.91-41.328-14.277zm106.12 217-1.5117 0.44922-1.3984 2.8008c-13.777 27.945-19.992 41.383-19.77 48.328v-0.003906c-1.6758 1.6211-3.8867 2.5742-6.2148 2.6875-1.4805-0.35938-2.8867-0.98828-4.1445-1.8477-2.1875-1.2773-4.4727-2.3789-6.832-3.3047 5.375-28.84 9.6875-49.336 11.762-56.113v0.003907c6.2422-11.512 10.289-24.082 11.926-37.074 6.9102 0.0625 13.387-3.3438 17.25-9.0703 4.0273 0.4375 8.0859-0.53125 11.48-2.7461 0.30859 1.1367 0.76172 2.2266 1.3438 3.25 0.94922 24.977-10.977 50.344-13.891 52.641zm-15.176-53.594c0.39062-5.3203 0.50391-10.809 0.39062-16.465h0.003906c2.2578 4.1719 4.918 8.1133 7.9492 11.762-1.8828 2.793-4.9766 4.5391-8.3438 4.7031zm35.113-117.54-3.4141 1.8477 1.1211 3.6953h-0.003907c1.0195 3.4648 1.0703 7.1445 0.15625 10.637-0.91797 3.4922-2.7734 6.668-5.3633 9.1875l-1.793 2.0156 0.55859 2.4102c11.09 45.809 4.8164 70.223 3.1367 73.137v-0.003906c-0.5 0.81641-0.91016 1.6797-1.2305 2.5781-0.32812-0.097656-0.66797-0.13281-1.0078-0.11328l-0.95312 0.054687-1.1758 0.50391c-2.8555 1.5664-5.7695 3.2461-7.0547 2.8008-3.8633-1.1211-11.535-15.625-19.039-29.734-1.4141-11.574-3.9062-22.992-7.4492-34.105l-0.22266-0.67188c-0.22266-0.78516-0.44922-1.3984-0.55859-1.8477-0.11328-0.44922-0.11328-2.9102-0.11328-4.2578v0.003907c0.65625-14.809-2.7734-29.516-9.9141-42.504-3.0234-4.9297-6.7188-9.418-10.977-13.328 4.8594 1.293 9.9414 1.5234 14.898 0.67188 3.7305 2.4805 6.6523 6.0039 8.3984 10.133 6.1055 24.414 10.473 42.055 27.777 40.375l2.0703-0.44922 2.1289-3.0234-0.16797-1.625v0.003906c-0.29688-2.5391-2.5469-4.3945-5.0977-4.1992-7.168 0.67188-10.305-4.8711-16.969-30.574l1.2891 1.3438 1.5664 0.22266h0.003907c4.1992 0.76953 8.375-1.4609 10.078-5.375 1.375-3.5039 1.707-7.332 0.94922-11.02-0.75391-3.6875-2.5625-7.0781-5.2031-9.7578-3.9766-3.4844-9.8086-3.832-14.168-0.83984l-1.5117 0.83984h-0.003906c-0.45312-2.2461-2.4688-3.8359-4.7578-3.75h-0.054687l-3.0234 0.50391h-0.003906c-2.2461 0.48828-4.5312 0.78906-6.832 0.89453-4.9844 0-11.312-2.1836-22.625-27.887-5.0977-23.688-21.168-25.48-25.984-25.48h-0.72656c-7.4648-4.7227-16.035-7.4062-24.863-7.7852-4.1719-0.058593-8.3047 0.82422-12.094 2.5742-11.535 5.375-18.367 18.871-20.383 39.984h-0.003907c-0.10547 1.2188 0.27734 2.4258 1.0664 3.3594 0.91797 1.0625 2.2383 1.6914 3.6406 1.7383 2.4219 0.011719 4.4453-1.8438 4.6445-4.2578 1.6797-17.527 6.7188-28.449 15.008-32.312l0.003906 0.003906c2.5078-1.1523 5.2461-1.7266 8.0078-1.6836 7.6953 0.5625 15.117 3.0859 21.559 7.3359l1.5117 0.72656 1.457-0.22266c0.38281-0.09375 0.78125-0.12891 1.1758-0.10938 3.8633 0 13.273 1.8477 17.078 18.984 7.6719 17.586 14 26.602 20.047 30.91h0.003906c-4.5547-1.8398-8.4688-4.9727-11.258-9.0156-14.391-22.848-29.566-34.609-41.719-32.258-6.1602 1.2305-14.168 6.4414-17.695 24.414v0.003906c-0.53125 0.53906-1.1836 0.94531-1.9062 1.1758-0.52734-0.55469-0.98047-1.1758-1.3438-1.8477l-1.793-1.9023-2.3516 0.28125c-16.184 1.793-75.434 27.777-72.742 85.793v-0.003906c-0.10937 10.035-1.1016 20.043-2.9688 29.902-0.35547 0.69531-0.54687 1.4609-0.55859 2.2422 0 0.28125-0.16797 27.664-11.871 37.742h-0.003906c-3.7617 3.0977-8.7188 4.332-13.496 3.3633l-0.67188-0.054688v-0.003906c-2.2969-0.007813-4.2656 1.6523-4.6484 3.9219-0.17969 1.3086 0.16406 2.6367 0.95313 3.6953l1.3984 1.5117 1.5664 0.22266h0.003907c5.2266 0.96484 10.621 0.30078 15.457-1.9023 3.7266 4.5742 9.2773 7.2773 15.176 7.3906-0.54297 18.461-2.2617 36.867-5.1523 55.105-39.48-52.137-37.352-59.695-35.336-66.977 0.3125-1.0312 0.57422-2.0781 0.78516-3.1367l0.16797-1.1211-0.28125-1.0078c-2.4414-5.8516-2.5781-12.414-0.39453-18.367l3.3047-5.9922-6.7773-0.95312 0.003906 0.003906c-2.1406-0.066406-4.1406-1.0938-5.4336-2.8008-2.2969-3.6953-1.3438-11.984 3.0234-25.367l0.22266-1.1211-0.16797-1.0078h0.003906c-1.3477-5.5547-1.2305-11.363 0.33594-16.855 2.3438-8.7305 1.9922-17.965-1.0078-26.488l-0.72656-1.625-1.3984-0.78516h-0.003906c-3.3945-1.5859-6.3086-4.043-8.4414-7.125-2.1328-3.0781-3.4141-6.668-3.7109-10.402 0.58203-8.6445 5.6953-16.336 13.438-20.215l1.2891-1.1211 0.39062-1.5117c5.7695-23.238 5.7695-23.238 13.719-28.113 1.3984-0.83984 2.9688-1.793 5.0391-3.1367l0.61719-0.50391 0.67188-0.89453c1.7344-3.0234 3.1367-5.6016 4.2578-7.6719 8.7344 12.711 16.07 19.434 21.895 20.047 26.434 2.8555 33.879-27.777 34.215-29.121l0.003906 0.003907c0.23047-1.2188-0.007812-2.4805-0.67188-3.5312-0.70703-1.0859-1.8125-1.8477-3.082-2.125l-0.83984-0.054688v-0.003906c-2.1992-0.027344-4.1172 1.4922-4.5898 3.6406-0.054688 0.22266-5.8789 23.801-24.023 21.84-0.11328 0-2.6875-0.33594-8.8477-7.7266 10.246-1.0625 25.535-4.5352 30.352-15.68 0.48438-1.168 0.48438-2.4766 0-3.6445-0.48438-1.1641-1.4102-2.0898-2.5781-2.5742l-0.72656-0.27734-1.0625-0.11328c-0.78906 0.003906-1.5625 0.21875-2.2422 0.61719-0.011719 0.15234-0.046875 0.30469-0.10938 0.44531-0.38672 1.4453-1.4219 2.625-2.8008 3.1953v0.054688c-4.0312 5.7695-16.297 8.6797-27.551 9.0156-1.9023-2.8008-3.3047-5.0391-3.9219-6.0469l-0.55859-0.89453v-0.003907c-2.3555-2.543-3.3203-6.0781-2.5781-9.4609 1.9023-6.4961 11.871-12.32 20.832-15.734l1.3984-0.89453v-0.003907c6.1328-7.1172 15.023-11.258 24.418-11.367 5.875 0.17188 11.688 1.2305 17.246 3.1328 3.3242 0.80859 6.832 0.20312 9.6914-1.6797 2.1523-1.5234 4.7539-2.293 7.3906-2.1836 4.3906-0.023437 8.6797 1.3281 12.266 3.8633l0.72656 0.55859 1.2305 0.39062v0.003906c8.0234 2.0898 15.742 5.2148 22.961 9.2969l2.4062 0.83984 1.9023-1.2891h0.003906c1.3984-0.50391 2.8828-0.71484 4.3672-0.61328 4.2461 0.11719 8.4648 0.77734 12.543 1.957 18.477 5.1875 33.77 18.172 41.891 35.562l1.3984 1.9609 2.1836 0.16797c1.3984 0.11328 5.0391 0.39062 5.9375 16.238l0.22266 4.4258h5.7695v-0.003906c1.1758-0.023438 2.3555 0.03125 3.5273 0.16797 0.24609 1.4453 0.35938 2.9062 0.33594 4.3711l0.50391 2.5742 2.2383 1.0078c35.895 16.016 39.145 29.121 39.258 32.762 0.050781 3.7656-2.0898 7.2188-5.4883 8.8477zm-39.648-20.273c2.3203-1.0352 4.582-2.1914 6.7773-3.4727 1.7383-1.1211 2.4062-0.72656 2.9688-0.22266 2.2891 2.7344 3.0273 6.4531 1.957 9.8555l-0.72656-0.054688c-2.2617-0.035156-4.207 1.5781-4.5938 3.8086-1.6211-3.6055-3.7695-6.9453-6.3828-9.9141z"/>
  <path d="m387.69 321.05-0.11328 2.1289c-0.34766 2.293-2.3242 3.9844-4.6445 3.9766l-0.72656-0.054688h-0.003906c-0.30078 0.078125-0.58203 0.21094-0.83984 0.39062l-0.11328 0.11328c-8.5625 7.9609-19.676 12.625-31.359 13.16-1.1758 0-2.3516-0.054688-3.4727-0.16797-9.875-1.0742-18.996-5.7852-25.59-13.219-0.50391-0.65625-1.1328-1.207-1.8477-1.6211l-1.457-0.55859-1.0625-1.7344v-0.003907c-0.55469-1.1797-0.61719-2.5312-0.16797-3.7539 0.67578-1.832 2.4141-3.0586 4.3672-3.0781l1.457 0.28125v-0.003906c2.375 0.98828 4.457 2.5703 6.0469 4.5938 5.0547 5.375 11.828 8.8242 19.152 9.7422 10.219 0.36719 20.152-3.4102 27.551-10.469 2.2891-2.4102 5.6367-3.5039 8.9062-2.9141l1.625 0.28125z"/>
  <path d="m382.43 270.48c-0.61719-2.0938-2.5781-3.5039-4.7617-3.418h-0.11328l-1.457 0.33594h0.003906c-5.3555-4.2578-11.977-6.6016-18.816-6.6641-3.6055 0.007813-7.1758 0.69141-10.527 2.0195-2.0469-0.65234-4.1836-0.97656-6.3281-0.95312-7.625 0.48047-14.816 3.7266-20.219 9.1289l-0.83984-0.16797c-1.9414-0.007813-3.6914 1.1797-4.3984 2.9922s-0.22656 3.8711 1.207 5.1836l2.9688 2.5195h1.9609c0.77734-0.015625 1.543-0.20703 2.2383-0.5625l0.61719 1.1211 1.3984 0.67188c3.3867 1.3984 6.8906 2.4844 10.473 3.25-0.83203 0.63281-1.6172 1.3242-2.3516 2.0703-0.84766 0.97266-1.2695 2.2461-1.1641 3.5352 0.10547 1.2852 0.72656 2.4766 1.7227 3.2969l1.5117 1.0078h1.4023c1.3242 0.035156 2.5938-0.51953 3.4727-1.5117 2.3672-2.2734 5.5078-3.5703 8.7891-3.6406 3.3594 0.15625 6.5938 1.3047 9.2969 3.3047l1.3984 0.78516h1.1797c1.6133-0.039062 3.1055-0.87891 3.9727-2.2422l0.95312-1.9023-1.0078-3.5859-1.2891-0.89453c-0.72656-0.50391-1.5117-0.95312-2.2969-1.3984h0.003906c3.2695-1.1641 6.3359-2.8477 9.0703-4.9844 1.0352-0.88672 1.6445-2.168 1.6797-3.5312 1.0273 0.61328 2.2227 0.88672 3.418 0.78516l3.5273-0.72656c2.5-0.72266 3.9688-3.3086 3.3047-5.8242zm-17.863 1.9609h-0.003906c-4.8711 3.7266-10.891 5.6445-17.023 5.4297-5.7773-0.09375-11.496-1.1758-16.91-3.1914 2.8477-2.1016 6.2617-3.3125 9.8008-3.4727 1.8164 0.027344 3.6055 0.42969 5.2617 1.1758l2.0156 0.44922 1.625-0.89453c2.457-1.2695 5.1875-1.9023 7.9531-1.8477 2.7617 0.003906 5.4922 0.59375 8.0078 1.7344z"/>
  <path d="m415.41 182.56v-0.054688c-0.089844-5.7188-1.8984-11.277-5.1797-15.957-3.2852-4.6836-7.8984-8.2734-13.242-10.309-3.4297-1.25-7.0469-1.8945-10.695-1.9023-9.9414 0.09375-19.379 4.3867-25.984 11.816-8.043 9.4922-10.723 22.418-7.1133 34.328l0.33594 0.55859c16.406 22.398 16.129 31.586 14.727 33.039h0.003906c-0.13672 0.085937-0.28906 0.14453-0.44922 0.16797 0.26172-0.84766 0.35547-1.7422 0.28125-2.6289-1.0859-4.7812-5.0938-8.3398-9.9688-8.8477-3.8008-0.5-7.3711 1.9336-8.2891 5.6562l-0.11328 0.72656v0.61719c0.11328 1.0078-1.793 2.1289-3.8086 2.3516-2.8008 0.28125-4.4258-1.1211-4.7617-4.2578l-0.50391-1.457h0.003907c-1.6406-2.5469-4.7422-3.7461-7.6719-2.9648-4.9805 0.93359-8.9492 4.7031-10.137 9.6289-0.054688 0.054688-0.054688 0.054688-0.054688 0.11328 0.22266-3.8281 1.293-7.5586 3.1367-10.918l0.28125-0.83984h-0.003906c1.0469-5.125 2.4883-10.164 4.3125-15.066 3.8086-11.031 6.1602-17.695-4.4805-36.457-5.125-6.3555-13.02-9.8242-21.168-9.293-5.1289 0.011719-10.199 1.0781-14.895 3.1328-6.3398 2.6484-11.477 7.5391-14.434 13.738-2.9531 6.2031-3.5195 13.273-1.582 19.863 0.011719 0.13281-0.007813 0.26953-0.058594 0.39062-0.71094 0.90234-1.0156 2.0586-0.83984 3.1953 0.30859 1.9492 2.0039 3.3789 3.9766 3.3594l0.61719-0.054687c1.9609-0.28125 4.3125-1.8477 4.3125-7.3359l-0.054688-0.33594 1.2305 0.16797v-0.003907c0.84766 0 1.6719-0.27734 2.3516-0.78125 2.75 0.33984 5.5156 0.50781 8.2891 0.50391 8.8438 0.22656 17.582-1.9844 25.254-6.3867 0.55859 0.27734 1.1719 0.41016 1.793 0.39453l0.95312-0.054687 0.83984-0.39062v-0.003907c1.3516-0.70312 2.1797-2.1172 2.125-3.6406 1.4727 5.8398 0.81641 12.016-1.8477 17.418-1.8555 5.0352-3.3359 10.199-4.4219 15.453-6.2148 13.105-3.5273 21.449 1.1211 24.922 1.7695 1.3438 3.9336 2.0703 6.1602 2.0703 3.0508-0.042969 5.9727-1.2461 8.1758-3.3594l4.0898-5.0391h-0.003906c2.5156 1.7461 5.5742 2.543 8.625 2.2383 2.9727-0.25781 5.7852-1.4766 8.0078-3.4688l3.6406 2.4648v-0.003906c4.4062 4.0039 11.055 4.2383 15.734 0.5625 8.6797-9.0156-4.8164-30.633-13.664-42.785-2.2344-8.8906-0.042969-18.316 5.8789-25.312 3.0938-3.4375 7.0039-6.0352 11.371-7.5586-6.6836 3.8203-11.934 9.7188-14.953 16.801l-0.61719 1.7344 1.2305 2.9688 2.0703 0.95312 0.95312 0.054688h0.003906c0.53906-0.011719 1.0703-0.125 1.5664-0.33594 5.4258 2.1094 11.203 3.1719 17.023 3.1367 6.9297-0.035156 13.781-1.4453 20.16-4.1445 0.76953 0.85938 1.8711 1.3516 3.0234 1.3438h0.054688l1.457 1.5664h0.003907c0.77344 0.8125 1.8438 1.2773 2.9648 1.2891h0.054688l1.7344-0.22266 0.89844-0.89844c0.77734-0.72656 1.2305-1.7305 1.2617-2.793s-0.35938-2.0898-1.0938-2.8633zm-127.12 5.6016h0.003906c1.8867-5.3359 6.3242-9.3711 11.816-10.754 5.5117-0.86328 11.016 1.5938 14.055 6.2734-8.0273 3.9023-17 5.457-25.871 4.4805zm14.336-18.984h0.003906c-1.3906-0.003906-2.7812 0.125-4.1445 0.39062-7.0703 1.7031-13.043 6.4062-16.352 12.883 1.9648-5.1602 5.9805-9.2734 11.086-11.371 3.707-1.6328 7.7109-2.4727 11.762-2.4609 5.3438-0.42188 10.594 1.5938 14.281 5.4883 1.8711 3.1953 3.4648 6.5508 4.7578 10.023-1.8438-4.2188-4.8203-7.8477-8.5938-10.484s-8.2031-4.1836-12.797-4.4688zm28.113 65.07c0.11328-0.83984 1.5117-2.1289 2.9688-2.6875 0.45312 1.6992 1.3164 3.2578 2.5195 4.5391-2.125-0.83984-5.4883-1.5703-5.4883-1.8516zm25.312-0.55859c0.62891-1.1328 0.97266-2.4023 1.0078-3.6953l0.39062 0.054687h0.003907c1.3086 0.30469 2.5117 0.96094 3.4727 1.9062-0.38281 0.33984-0.84375 0.57031-1.3477 0.67188zm28.84-52.414c-4.1445 0.027343-8.2656-0.61328-12.207-1.9062 2.6133-5.0664 7.5156-8.5508 13.16-9.3516 5.7617 0.62109 10.98 3.6758 14.336 8.3984-4.8828 1.8633-10.062 2.8281-15.289 2.8594zm7.6719-18.031c0.55859 0.16797 1.0625 0.33594 1.625 0.50391v-0.003906c2.7266 1.0156 5.1914 2.625 7.2227 4.707-2.6172-2.2461-5.6133-4.0117-8.8477-5.2109z"/>
  <path d="m283.98 44.129-1.0078 1.7344c-1.957 3.0469-4.5547 5.6289-7.6172 7.5625 1.3203 1.1758 1.8984 2.9766 1.5117 4.7031-0.011719 0.15234-0.046875 0.30469-0.10938 0.44531-0.38672 1.4453-1.4219 2.625-2.8008 3.1953v0.054688c-4.5352 1.3594-9.2852 1.8516-14 1.457-1.9609 0-4.2578 0-6.832-0.054688-2.6328-0.11328-10.586-0.33594-10.922-6.3828-0.33594-4.8711 5.1523-7.4492 10.359-8.2305 18.426-2.4648 18.426-2.4648 22.625-8.0078v-0.003907c0.88672-1.3008 2.3477-2.0938 3.9219-2.1289h1.2891l1.5664 0.95312c1 0.76172 1.6641 1.8867 1.8477 3.1328z"/>
  <path d="m243.43 250.04-1.0078 0.39063-0.83984 0.054687v0.003906c-1.8867 0.027344-3.6055-1.0742-4.3711-2.8008l-0.67188-1.457 1.0625-3.5859 1.793-1.0625c2.5742-1.3984 2.7422-22.457-4.3672-52.809v0.003906c-0.29688-1.2031-0.09375-2.4766 0.5625-3.5312 0.65625-1.0547 1.7031-1.8203 2.9102-2.125l1.1211-0.11328c2.1953-0.015624 4.1055 1.5 4.5898 3.6406 3.9766 17.137 11.875 57.68-0.78125 63.391z"/>
  <use x="70" y="644" xlink:href="#v"/>
  <use x="90.550781" y="644" xlink:href="#b"/>
  <use x="104.359375" y="644" xlink:href="#a"/>
  <use x="123.347656" y="644" xlink:href="#e"/>
  <use x="142.242188" y="644" xlink:href="#d"/>
  <use x="155.628906" y="644" xlink:href="#a"/>
  <use x="174.617188" y="644" xlink:href="#k"/>
  <use x="204.410156" y="644" xlink:href="#j"/>
  <use x="224.453125" y="644" xlink:href="#c"/>
  <use x="252.453125" y="644" xlink:href="#i"/>
  <use x="275.882812" y="644" xlink:href="#e"/>
  <use x="294.78125" y="644" xlink:href="#c"/>
  <use x="313.03125" y="644" xlink:href="#u"/>
  <use x="322.628906" y="644" xlink:href="#a"/>
  <use x="341.617188" y="644" xlink:href="#c"/>
  <use x="369.617188" y="644" xlink:href="#t"/>
  <use x="397.484375" y="644" xlink:href="#h"/>
  <use x="414.078125" y="644" xlink:href="#s"/>
  <use x="431.921875" y="644" xlink:href="#e"/>
  <use x="450.816406" y="644" xlink:href="#b"/>
  <use x="464.625" y="644" xlink:href="#a"/>
  <use x="483.617187" y="644" xlink:href="#g"/>
  <use x="70" y="672" xlink:href="#r"/>
  <use x="82.183594" y="672" xlink:href="#b"/>
  <use x="95.992188" y="672" xlink:href="#f"/>
  <use x="115.226562" y="672" xlink:href="#q"/>
  <use x="154.152344" y="672" xlink:href="#d"/>
  <use x="167.535156" y="672" xlink:href="#p"/>
  <use x="187.46875" y="672" xlink:href="#a"/>
  <use x="216.207031" y="672" xlink:href="#o"/>
  <use x="239.640625" y="672" xlink:href="#f"/>
  <use x="258.878906" y="672" xlink:href="#n"/>
  <use x="278.8125" y="672" xlink:href="#g"/>
  <use x="308.492188" y="672" xlink:href="#m"/>
  <use x="329.015625" y="672" xlink:href="#b"/>
  <use x="342.820312" y="672" xlink:href="#f"/>
  <use x="362.058594" y="672" xlink:href="#l"/>
  <use x="371.65625" y="672" xlink:href="#a"/>
  <use x="390.648438" y="672" xlink:href="#h"/>
  <use x="407.242188" y="672" xlink:href="#d"/>
 </g>
</svg>
