<?xml version="1.0" encoding="UTF-8"?>
<svg width="700pt" height="700pt" version="1.1" viewBox="0 0 700 700" xmlns="http://www.w3.org/2000/svg" xmlns:xlink="http://www.w3.org/1999/xlink">
 <defs>
  <symbol id="n" overflow="visible">
   <path d="m29.312-1.75c-1.5117 0.78125-3.0898 1.3711-4.7344 1.7656-1.6367 0.40625-3.3398 0.60938-5.1094 0.60938-5.3125 0-9.5273-1.4844-12.641-4.4531-3.1055-2.9688-4.6562-7-4.6562-12.094s1.5508-9.125 4.6562-12.094c3.1133-2.9688 7.3281-4.4531 12.641-4.4531 1.7695 0 3.4727 0.19922 5.1094 0.59375 1.6445 0.39844 3.2227 0.99219 4.7344 1.7812v6.5938c-1.5312-1.0391-3.0391-1.8008-4.5156-2.2812-1.4805-0.48828-3.0391-0.73438-4.6719-0.73438-2.9375 0-5.2461 0.94531-6.9219 2.8281-1.6797 1.875-2.5156 4.4648-2.5156 7.7656 0 3.293 0.83594 5.8828 2.5156 7.7656 1.6758 1.875 3.9844 2.8125 6.9219 2.8125 1.6328 0 3.1914-0.23828 4.6719-0.71875 1.4766-0.48828 2.9844-1.2539 4.5156-2.2969z"/>
  </symbol>
  <symbol id="h" overflow="visible">
   <path d="m21.453-17.406c-0.67969-0.3125-1.3516-0.53906-2.0156-0.6875-0.65625-0.15625-1.3203-0.23438-1.9844-0.23438-1.9688 0-3.4844 0.63281-4.5469 1.8906-1.0547 1.2617-1.5781 3.0703-1.5781 5.4219v11.016h-7.6562v-23.922h7.6562v3.9219c0.97656-1.5625 2.1016-2.7031 3.375-3.4219 1.2812-0.71875 2.8125-1.0781 4.5938-1.0781 0.25 0 0.52344 0.011719 0.82812 0.03125 0.30078 0.023438 0.73438 0.070312 1.2969 0.14062z"/>
  </symbol>
  <symbol id="b" overflow="visible">
   <path d="m27.562-12.031v2.1875h-17.891c0.1875 1.793 0.83203 3.1367 1.9375 4.0312 1.1133 0.89844 2.6719 1.3438 4.6719 1.3438 1.6016 0 3.25-0.23438 4.9375-0.70312 1.6875-0.47656 3.4219-1.2031 5.2031-2.1719v5.8906c-1.8047 0.6875-3.6094 1.2031-5.4219 1.5469-1.8125 0.35156-3.6211 0.53125-5.4219 0.53125-4.3359 0-7.7031-1.0977-10.109-3.2969-2.3984-2.207-3.5938-5.2969-3.5938-9.2656 0-3.9062 1.1758-6.9727 3.5312-9.2031 2.3633-2.2383 5.6094-3.3594 9.7344-3.3594 3.7578 0 6.7695 1.1367 9.0312 3.4062 2.2578 2.2617 3.3906 5.2812 3.3906 9.0625zm-7.8594-2.5312c0-1.457-0.42969-2.6289-1.2812-3.5156-0.84375-0.89453-1.9492-1.3438-3.3125-1.3438-1.4922 0-2.6992 0.41797-3.625 1.25-0.91797 0.83594-1.4922 2.0391-1.7188 3.6094z"/>
  </symbol>
  <symbol id="a" overflow="visible">
   <path d="m14.391-10.766c-1.5938 0-2.793 0.27344-3.5938 0.8125-0.80469 0.54297-1.2031 1.3398-1.2031 2.3906 0 0.96875 0.32031 1.7305 0.96875 2.2812 0.64453 0.54297 1.5469 0.8125 2.7031 0.8125 1.4375 0 2.6445-0.51562 3.625-1.5469 0.98828-1.0312 1.4844-2.3203 1.4844-3.875v-0.875zm11.688-2.8906v13.656h-7.7031v-3.5469c-1.0312 1.4492-2.1875 2.5078-3.4688 3.1719s-2.8398 1-4.6719 1c-2.4805 0-4.4961-0.72266-6.0469-2.1719-1.543-1.4453-2.3125-3.3203-2.3125-5.625 0-2.8125 0.96094-4.8672 2.8906-6.1719 1.9375-1.3125 4.9688-1.9688 9.0938-1.9688h4.5156v-0.60938c0-1.207-0.48047-2.0938-1.4375-2.6562-0.94922-0.5625-2.4375-0.84375-4.4688-0.84375-1.6367 0-3.1562 0.16797-4.5625 0.5-1.4062 0.32422-2.7188 0.8125-3.9375 1.4688v-5.8281c1.6445-0.40625 3.2891-0.70703 4.9375-0.90625 1.6562-0.20703 3.3047-0.3125 4.9531-0.3125 4.3203 0 7.4375 0.85547 9.3438 2.5625 1.9141 1.6992 2.875 4.4609 2.875 8.2812z"/>
  </symbol>
  <symbol id="g" overflow="visible">
   <path d="m12.031-30.719v6.7969h7.875v5.4688h-7.875v10.141c0 1.1172 0.21875 1.8711 0.65625 2.2656 0.4375 0.38672 1.3125 0.57812 2.625 0.57812h3.9375v5.4688h-6.5625c-3.0234 0-5.1641-0.62891-6.4219-1.8906-1.2617-1.2578-1.8906-3.3984-1.8906-6.4219v-10.141h-3.7969v-5.4688h3.7969v-6.7969z"/>
  </symbol>
  <symbol id="f" overflow="visible">
   <path d="m19.953-20.422v-12.812h7.6875v33.234h-7.6875v-3.4531c-1.0547 1.4062-2.2148 2.4375-3.4844 3.0938-1.2734 0.65625-2.7422 0.98438-4.4062 0.98438-2.9492 0-5.3711-1.1719-7.2656-3.5156-1.8867-2.3438-2.8281-5.3594-2.8281-9.0469s0.94141-6.7031 2.8281-9.0469c1.8945-2.3438 4.3164-3.5156 7.2656-3.5156 1.6562 0 3.1172 0.33594 4.3906 1 1.2812 0.65625 2.4453 1.6836 3.5 3.0781zm-5.0469 15.484c1.6445 0 2.8945-0.59766 3.75-1.7969 0.86328-1.1953 1.2969-2.9297 1.2969-5.2031 0-2.2812-0.43359-4.0195-1.2969-5.2188-0.85547-1.1953-2.1055-1.7969-3.75-1.7969-1.625 0-2.8711 0.60156-3.7344 1.7969-0.85547 1.1992-1.2812 2.9375-1.2812 5.2188 0 2.2734 0.42578 4.0078 1.2812 5.2031 0.86328 1.1992 2.1094 1.7969 3.7344 1.7969z"/>
  </symbol>
  <symbol id="e" overflow="visible">
   <path d="m16.406-4.9375c1.6328 0 2.8828-0.59766 3.75-1.7969 0.86328-1.1953 1.2969-2.9297 1.2969-5.2031 0-2.2812-0.43359-4.0195-1.2969-5.2188-0.86719-1.1953-2.1172-1.7969-3.75-1.7969-1.6367 0-2.8906 0.60547-3.7656 1.8125-0.875 1.1992-1.3125 2.9336-1.3125 5.2031 0 2.2617 0.4375 3.9961 1.3125 5.2031 0.875 1.1992 2.1289 1.7969 3.7656 1.7969zm-5.0781-15.484c1.0508-1.3945 2.2188-2.4219 3.5-3.0781 1.2812-0.66406 2.7539-1 4.4219-1 2.9453 0 5.3672 1.1719 7.2656 3.5156 1.8945 2.3438 2.8438 5.3594 2.8438 9.0469s-0.94922 6.7031-2.8438 9.0469c-1.8984 2.3438-4.3203 3.5156-7.2656 3.5156-1.668 0-3.1406-0.33594-4.4219-1s-2.4492-1.6914-3.5-3.0781v3.4531h-7.6562v-33.234h7.6562z"/>
  </symbol>
  <symbol id="d" overflow="visible">
   <path d="m0.53125-23.922h7.6562l6.4219 16.234 5.4688-16.234h7.6562l-10.062 26.188c-1.0117 2.6641-2.1953 4.5234-3.5469 5.5781-1.3438 1.0625-3.1211 1.5938-5.3281 1.5938h-4.4219v-5.0156h2.3906c1.3008 0 2.2422-0.21094 2.8281-0.625 0.59375-0.40625 1.0547-1.1484 1.3906-2.2188l0.20312-0.65625z"/>
  </symbol>
  <symbol id="c" overflow="visible">
   <path d="m4.0156-31.891h9.1875l11.594 21.875v-21.875h7.7969v31.891h-9.1875l-11.594-21.875v21.875h-7.7969z"/>
  </symbol>
  <symbol id="m" overflow="visible">
   <path d="m1.5312-23.922h7.4375l4.0156 16.484 4.0469-16.484h6.375l4.0156 16.312 4.0469-16.312h7.4375l-6.3125 23.922h-8.3438l-4.0469-16.453-4.0156 16.453h-8.3438z"/>
  </symbol>
  <symbol id="l" overflow="visible">
   <path d="m3.6719-23.922h7.6562v23.922h-7.6562zm0-9.3125h7.6562v6.2344h-7.6562z"/>
  </symbol>
  <symbol id="k" overflow="visible">
   <path d="m23-23.172v6.2344c-1.0312-0.71875-2.0742-1.2422-3.125-1.5781-1.043-0.34375-2.125-0.51562-3.25-0.51562-2.1367 0-3.8047 0.625-5 1.875-1.1875 1.2422-1.7812 2.9805-1.7812 5.2188 0 2.2305 0.59375 3.9688 1.7812 5.2188 1.1953 1.25 2.8633 1.875 5 1.875 1.1953 0 2.332-0.17578 3.4062-0.53125 1.0703-0.36328 2.0625-0.89453 2.9688-1.5938v6.2656c-1.1875 0.4375-2.4023 0.76562-3.6406 0.98438-1.2305 0.22656-2.4648 0.34375-3.7031 0.34375-4.3125 0-7.6875-1.1094-10.125-3.3281s-3.6562-5.2969-3.6562-9.2344c0-3.9453 1.2188-7.0234 3.6562-9.2344 2.4375-2.2188 5.8125-3.3281 10.125-3.3281 1.25 0 2.4844 0.10938 3.7031 0.32812s2.4297 0.55469 3.6406 1z"/>
  </symbol>
  <symbol id="j" overflow="visible">
   <path d="m15.062-19.031c-1.6992 0-2.9961 0.60938-3.8906 1.8281-0.88672 1.2188-1.3281 2.9766-1.3281 5.2656 0 2.293 0.44141 4.0469 1.3281 5.2656 0.89453 1.2188 2.1914 1.8281 3.8906 1.8281 1.6641 0 2.9375-0.60938 3.8125-1.8281 0.88281-1.2188 1.3281-2.9727 1.3281-5.2656 0-2.2891-0.44531-4.0469-1.3281-5.2656-0.875-1.2188-2.1484-1.8281-3.8125-1.8281zm0-5.4688c4.1133 0 7.3281 1.1094 9.6406 3.3281s3.4688 5.2969 3.4688 9.2344c0 3.9297-1.1562 7.0078-3.4688 9.2344-2.3125 2.2188-5.5273 3.3281-9.6406 3.3281-4.1367 0-7.3711-1.1094-9.7031-3.3281-2.3242-2.2266-3.4844-5.3047-3.4844-9.2344 0-3.9375 1.1602-7.0156 3.4844-9.2344 2.332-2.2188 5.5664-3.3281 9.7031-3.3281z"/>
  </symbol>
  <symbol id="i" overflow="visible">
   <path d="m27.734-14.562v14.562h-7.7031v-11.156c0-2.0625-0.046875-3.4844-0.14062-4.2656-0.085937-0.78125-0.24219-1.3594-0.46875-1.7344-0.30469-0.5-0.71094-0.88281-1.2188-1.1562-0.51172-0.28125-1.0938-0.42188-1.75-0.42188-1.5938 0-2.8516 0.61719-3.7656 1.8438-0.90625 1.2305-1.3594 2.9375-1.3594 5.125v11.766h-7.6562v-23.922h7.6562v3.5c1.1445-1.3945 2.3633-2.4219 3.6562-3.0781 1.3008-0.66406 2.7383-1 4.3125-1 2.7578 0 4.8516 0.85156 6.2812 2.5469 1.4375 1.6875 2.1562 4.1523 2.1562 7.3906z"/>
  </symbol>
 </defs>
 <g>
  <path d="m315 140v52.5c0 12.504 6.6719 24.059 17.5 30.312 10.828 6.25 24.172 6.25 35 0 10.828-6.2539 17.5-17.809 17.5-30.312v-52.5c0-12.504-6.6719-24.059-17.5-30.312-10.828-6.25-24.172-6.25-35 0-10.828 6.2539-17.5 17.809-17.5 30.312zm52.5 0v52.5c0 6.2539-3.3359 12.031-8.75 15.156s-12.086 3.125-17.5 0-8.75-8.9023-8.75-15.156v-52.5c0-6.2539 3.3359-12.031 8.75-15.156s12.086-3.125 17.5 0 8.75 8.9023 8.75 15.156z"/>
  <path d="m612.5 288.75c-0.011719-10.844-2.8984-21.492-8.3711-30.855-5.4727-9.3594-13.336-17.102-22.777-22.434 14.023-9.8125 22.383-25.844 22.398-42.961v-35c0-11.602-4.6094-22.73-12.812-30.938-8.207-8.2031-19.336-12.812-30.938-12.812h-70c-4.832 0-8.75 3.918-8.75 8.75v8.75c0 13.77 6.4844 26.738 17.5 35v26.25c0.007812 17.164 8.4062 33.238 22.488 43.051-11.004 6.1641-19.836 15.578-25.289 26.949h-49.699c-6.9609 0-13.641 2.7656-18.562 7.6875s-7.6875 11.602-7.6875 18.562c0.03125 2.9844 0.5625 5.9414 1.5742 8.75h-62.824v-35.613c16.906-2.1289 32.453-10.352 43.73-23.125 11.273-12.773 17.504-29.223 17.52-46.262 0-4.832-3.918-8.75-8.75-8.75s-8.75 3.918-8.75 8.75c0 18.758-10.008 36.09-26.25 45.465-16.242 9.3789-36.258 9.3789-52.5 0-16.242-9.375-26.25-26.707-26.25-45.465 0-4.832-3.918-8.75-8.75-8.75s-8.75 3.918-8.75 8.75c0.015625 17.039 6.2461 33.488 17.52 46.262 11.277 12.773 26.824 20.996 43.73 23.125v35.613h-62.824c2.8359-8.0234 1.6094-16.922-3.2969-23.875-4.9023-6.9531-12.871-11.102-21.379-11.125h-49.699c-5.4844-11.352-14.305-20.758-25.289-26.949 14.082-9.8125 22.48-25.887 22.488-43.051v-26.25c11.016-8.2617 17.5-21.23 17.5-35v-8.75c0-2.3203-0.92188-4.5469-2.5625-6.1875s-3.8672-2.5625-6.1875-2.5625h-70c-11.602 0-22.73 4.6094-30.938 12.812-8.2031 8.207-12.812 19.336-12.812 30.938v8.75c0 2.3203 0.92188 4.5469 2.5625 6.1875s3.8672 2.5625 6.1875 2.5625h70c2.9375-0.023438 5.8672-0.31641 8.75-0.875v18.375c0.011719 11.676-5.8008 22.59-15.496 29.098-9.6953 6.5078-22 7.75-32.801 3.3125s-18.68-13.965-21.004-25.41c-0.96484-4.832-5.668-7.9648-10.5-7s-7.9648 5.668-7 10.5c2.7695 13.148 10.473 24.734 21.527 32.375-9.4258 5.3594-17.262 13.125-22.703 22.5-5.4414 9.3789-8.2969 20.031-8.2734 30.875v113.75c0.050781 8.8125 3.4258 17.281 9.4492 23.711-5.9531 4.9609-9.4102 12.293-9.4492 20.039v17.5c0 2.3203 0.92188 4.5469 2.5625 6.1875s3.8672 2.5625 6.1875 2.5625h23.801l-15.051 59.148c-0.62891 2.3242-0.27344 4.8086 0.98438 6.8594 1.2617 2.0547 3.3086 3.4961 5.6641 3.9922 2.3242 0.62891 4.8086 0.27344 6.8594-0.98438 2.0547-1.2617 3.4961-3.3086 3.9922-5.6641l15.574-63.352h38.852l15.574 63.352c1.1602 4.832 6.0156 7.8086 10.852 6.6484 2.3203-0.55859 4.3242-2.0117 5.5703-4.0469s1.6367-4.4844 1.0781-6.8047l-15.051-59.148h16.977l15.574 63.352c0.98828 4 4.6328 6.7695 8.75 6.6484h35c2.4102 0.015625 4.7227-0.96484 6.3867-2.7109 1.6641-1.7656 2.5195-4.1445 2.3633-6.5625l-7.1758-124.07v-0.003906c-0.53906-11.234-5.3867-21.828-13.531-29.586-8.1484-7.7539-18.969-12.074-30.219-12.062h-19.074v-17.5h113.75v175h-17.5c-4.832 0-8.75 3.918-8.75 8.75s3.918 8.75 8.75 8.75h87.5c4.832 0 8.75-3.918 8.75-8.75s-3.918-8.75-8.75-8.75h-17.5v-175h113.75v17.5h-19.164c-11.23-0.015625-22.043 4.293-30.188 12.031-8.1445 7.7383-13 18.312-13.562 29.531l-2.1016 36.664h0.003906c-0.28906 4.832 3.3906 8.9844 8.2227 9.2734 4.8359 0.28906 8.9883-3.3906 9.2773-8.2266l2.1016-36.75h-0.003906c0.31641-6.7461 3.2227-13.113 8.1094-17.773 4.8906-4.6602 11.387-7.2578 18.141-7.25h124.16v17.5c0 4.6406-1.8438 9.0938-5.125 12.375s-7.7344 5.125-12.375 5.125h-87.5c-4.1172-0.12109-7.7617 2.6484-8.75 6.6484l-24.324 98.352h-18.902l2.5391-43.227c0.14453-2.3203-0.64453-4.6016-2.1875-6.3438-1.543-1.7422-3.7148-2.793-6.0391-2.9297-2.3203-0.14453-4.6016 0.64453-6.3438 2.1875-1.7422 1.543-2.793 3.7148-2.9297 6.0391l-3.0625 52.5c-0.15625 2.418 0.69922 4.7969 2.3633 6.5625 1.6641 1.7461 3.9766 2.7266 6.3867 2.7109h35c4.1172 0.12109 7.7617-2.6484 8.75-6.6484l15.574-63.352h16.977l-15.051 59.148c-0.62891 2.3242-0.27344 4.8086 0.98438 6.8594 1.2617 2.0547 3.3086 3.4961 5.6641 3.9922 2.3242 0.62891 4.8086 0.27344 6.8594-0.98438 2.0547-1.2617 3.4961-3.3086 3.9922-5.6641l15.574-63.352h38.852l15.574 63.352c1.1602 4.832 6.0156 7.8086 10.852 6.6484 2.3203-0.55859 4.3242-2.0117 5.5703-4.0469s1.6367-4.4844 1.0781-6.8047l-15.051-59.148h23.801c2.3203 0 4.5469-0.92188 6.1875-2.5625s2.5625-3.8672 2.5625-6.1875v-17.5c-0.039062-7.7461-3.4961-15.078-9.4492-20.039 6.0234-6.4297 9.3984-14.898 9.4492-23.711zm-498.75-131.25c0-6.9609 2.7656-13.641 7.6875-18.562s11.602-7.6875 18.562-7.6875h61.25c0 6.9609-2.7656 13.641-7.6875 18.562s-11.602 7.6875-18.562 7.6875zm446.25-26.25c6.9609 0 13.641 2.7656 18.562 7.6875s7.6875 11.602 7.6875 18.562h-61.25c-6.9609 0-13.641-2.7656-18.562-7.6875s-7.6875-11.602-7.6875-18.562zm-43.75 61.25v-18.375c2.8828 0.55859 5.8125 0.85156 8.75 0.875h61.25v17.5c0 12.504-6.6719 24.059-17.5 30.312-10.828 6.25-24.172 6.25-35 0-10.828-6.2539-17.5-17.809-17.5-30.312zm-367.5 52.5c9.0391 0.003906 17.852 2.8086 25.23 8.0273 7.3789 5.2148 12.965 12.59 15.98 21.109 1.2266 3.5 4.5195 5.8477 8.2266 5.8633h55.562c4.832 0 8.75 3.918 8.75 8.75s-3.918 8.75-8.75 8.75h-87.5c-4.832 0-8.75-3.918-8.75-8.75s-3.918-8.75-8.75-8.75-8.75 3.918-8.75 8.75c0 6.9609 2.7656 13.641 7.6875 18.562s11.602 7.6875 18.562 7.6875h26.25v52.5h-87.5v-78.75c0-11.602 4.6094-22.73 12.812-30.938 8.207-8.2031 19.336-12.812 30.938-12.812zm-43.75 210v-8.75c0-4.832 3.918-8.75 8.75-8.75h89.426l4.375 17.5zm124.16-70c6.7695-0.007812 13.277 2.6016 18.168 7.2812s7.7891 11.066 8.082 17.832l6.5625 114.89h-18.902l-24.324-98.352c-0.98828-4-4.6328-6.7695-8.75-6.6484h-87.5c-4.6406 0-9.0938-1.8438-12.375-5.125s-5.125-7.7344-5.125-12.375v-17.5zm129.59 140h-17.5v-175h17.5zm-148.75-192.5v-17.5h280v17.5zm297.5 35v-52.5h26.25c6.9609 0 13.641-2.7656 18.562-7.6875s7.6875-11.602 7.6875-18.562c0-4.832-3.918-8.75-8.75-8.75s-8.75 3.918-8.75 8.75c0 2.3203-0.92188 4.5469-2.5625 6.1875s-3.8672 2.5625-6.1875 2.5625h-87.5c-2.3516-0.03125-4.5898-1.0117-6.2109-2.7109-1.6562-1.5703-2.5742-3.7617-2.5391-6.0391 0-4.832 3.918-8.75 8.75-8.75h55.562c3.707-0.015625 7-2.3633 8.2266-5.8633 4.6484-13.047 15.199-23.125 28.449-27.164 13.25-4.0391 27.633-1.5664 38.77 6.668 11.141 8.2344 17.719 21.258 17.742 35.109v78.75zm87.5 87.5h-102.55l4.375-17.5h89.426c2.3203 0 4.5469 0.92188 6.1875 2.5625s2.5625 3.8672 2.5625 6.1875z"/>
  <path d="m399.52 99.227c3.5391-0.015624 6.7227-2.1602 8.0625-5.4375 1.3398-3.2734 0.57812-7.0352-1.9375-9.5273-14.766-14.746-34.781-23.031-55.648-23.031s-40.883 8.2852-55.648 23.031c-2.1758 1.4258-3.6055 3.7461-3.9023 6.3281-0.29297 2.5859 0.57422 5.168 2.375 7.0469 1.8008 1.875 4.3398 2.8555 6.9336 2.6758 2.5977-0.18359 4.9766-1.5117 6.4922-3.625 11.492-11.543 27.113-18.031 43.398-18.031 16.289 0 31.906 6.4883 43.402 18.031 1.7148 1.7031 4.0586 2.6211 6.4727 2.5391z"/>
  <path d="m275.8 65.801c19.699-19.77 46.465-30.883 74.375-30.883 27.91 0 54.672 11.113 74.375 30.883 1.6406 1.6562 3.8789 2.5859 6.2109 2.5859s4.5703-0.92969 6.2148-2.5859c1.6562-1.6445 2.5859-3.8789 2.5859-6.2148 0-2.332-0.92969-4.5664-2.5859-6.2109-22.977-22.977-54.137-35.883-86.625-35.883-32.492 0-63.652 12.906-86.625 35.883-3.4336 3.4297-3.4336 8.9922 0 12.426 3.4297 3.4297 8.9922 3.4297 12.422 0z"/>
  <use x="70" y="691.25" xlink:href="#n"/>
  <use x="102.109375" y="691.25" xlink:href="#h"/>
  <use x="123.683594" y="691.25" xlink:href="#b"/>
  <use x="153.355469" y="691.25" xlink:href="#a"/>
  <use x="182.878906" y="691.25" xlink:href="#g"/>
  <use x="203.792969" y="691.25" xlink:href="#b"/>
  <use x="233.464844" y="691.25" xlink:href="#f"/>
  <use x="280.011719" y="691.25" xlink:href="#e"/>
  <use x="311.328125" y="691.25" xlink:href="#d"/>
  <use x="355.078125" y="691.25" xlink:href="#c"/>
  <use x="391.695312" y="691.25" xlink:href="#a"/>
  <use x="421.21875" y="691.25" xlink:href="#m"/>
  <use x="461.636719" y="691.25" xlink:href="#l"/>
  <use x="476.632812" y="691.25" xlink:href="#k"/>
  <use x="502.566406" y="691.25" xlink:href="#j"/>
  <use x="532.621094" y="691.25" xlink:href="#i"/>
 </g>
</svg>
