<?xml version="1.0" encoding="iso-8859-1"?>
<!-- Generator: Adobe Illustrator 19.0.0, SVG Export Plug-In . SVG Version: 6.00 Build 0)  -->
<svg version="1.1" id="Layer_1" xmlns="http://www.w3.org/2000/svg" xmlns:xlink="http://www.w3.org/1999/xlink" x="0px" y="0px"
	 viewBox="0 0 258.567 258.567" style="enable-background:new 0 0 258.567 258.567;" xml:space="preserve">
<g>
	<g>
		<path style="fill:#4EFFBB;" d="M224.761,173.881h-7.012V56.355c0-21.144-17.255-38.372-38.427-38.372h-79.127
			c-21.172,0-38.399,17.228-38.399,38.372v117.526h-7.039c-3.862,0-6.984,3.122-6.984,6.957v24.54c0,3.862,3.122,6.984,6.984,6.984
			h7.039v15.776c0,3.862,3.122,6.984,6.984,6.984h5.313v16.461c0,3.862,3.122,6.984,6.984,6.984h117.361
			c3.862,0,7.012-3.122,7.012-6.984v-16.461h5.286c3.862,0,7.012-3.122,7.012-6.984v-15.776h7.012c3.862,0,7.012-3.122,7.012-6.984
			v-24.54C231.773,177.003,228.623,173.881,224.761,173.881z"/>
		<g>
			<g id="XMLID_18_">
				<g>
					<path style="fill:#222051;" d="M103.651,226.643h-9.687c-3.851,0-6.97,3.12-6.97,6.97l0,0c0,3.851,3.12,6.97,6.97,6.97h9.687
						c3.851,0,6.97-3.12,6.97-6.97l0,0C110.618,229.763,107.499,226.643,103.651,226.643z"/>
					<path style="fill:#222051;" d="M203.782,155.898h-7.012V38.372C196.77,17.269,179.501,0,158.398,0H79.217
						c-21.12,0-38.399,17.28-38.399,38.399v117.498h-7.039c-3.862,0-6.984,3.122-6.984,6.957v24.54c0,3.856,3.128,6.984,6.984,6.984
						h7.039v15.776c0,3.856,3.128,6.984,6.984,6.984h5.313V233.6c0,3.856,3.128,6.984,6.984,6.984h15.666
						c3.851,0,6.97-3.12,6.97-6.97l0,0c0-3.851-3.12-6.97-6.97-6.97h-8.682v-9.504h103.393v9.504h-48.634
						c-3.851,0-6.97,3.12-6.97,6.97l0,0c0,3.851,3.12,6.97,6.97,6.97h55.619c3.856,0,7.012-3.155,7.012-7.012v-16.433h5.286
						c3.856,0,7.012-3.155,7.012-7.012v-15.749h7.012c3.856,0,7.012-3.155,7.012-7.012v-24.513
						C210.793,159.02,207.643,155.898,203.782,155.898z M54.786,38.372c0-13.448,10.956-24.404,24.431-24.404h79.126
						c13.475,0,24.431,10.956,24.431,24.404v117.526H54.786C54.786,155.898,54.786,38.372,54.786,38.372z M182.774,203.171H54.786
						v-8.792h127.988V203.171z M196.797,180.411H40.763v-10.572h156.035v10.572H196.797z"/>
					<path style="fill:#302C58;" d="M182.774,38.372v117.526H54.786V38.372c0-13.448,10.956-24.404,24.431-24.404h79.127
						C171.819,13.968,182.774,24.924,182.774,38.372z M177.926,39.33c0-4.136-3.341-7.477-7.477-7.477
						c-4.108,0-7.45,3.341-7.45,7.477c0,4.108,3.341,7.45,7.45,7.45C174.585,46.78,177.926,43.439,177.926,39.33z M177.926,88.001
						c0-4.108-3.341-7.45-7.477-7.45c-4.108,0-7.45,3.341-7.45,7.45c0,4.136,3.341,7.477,7.45,7.477
						C174.585,95.478,177.926,92.136,177.926,88.001z M177.926,136.643c0-4.136-3.341-7.477-7.477-7.477
						c-4.108,0-7.45,3.341-7.45,7.477c0,4.108,3.341,7.45,7.45,7.45C174.585,144.093,177.926,140.752,177.926,136.643z
						 M159.959,63.789c0-4.136-3.341-7.477-7.477-7.477c-4.108,0-7.45,3.341-7.45,7.477c0,4.108,3.341,7.45,7.45,7.45
						C156.618,71.239,159.959,67.897,159.959,63.789z M159.959,112.459c0-4.108-3.341-7.45-7.477-7.45
						c-4.108,0-7.45,3.341-7.45,7.45c0,4.108,3.341,7.45,7.45,7.45C156.618,119.909,159.959,116.567,159.959,112.459z M143.8,39.33
						c0-4.136-3.341-7.477-7.477-7.477c-4.108,0-7.45,3.341-7.45,7.477c0,4.108,3.341,7.45,7.45,7.45
						C140.458,46.78,143.8,43.439,143.8,39.33z M143.8,88.001c0-4.108-3.341-7.45-7.477-7.45c-4.108,0-7.45,3.341-7.45,7.45
						c0,4.136,3.341,7.477,7.45,7.477C140.458,95.478,143.8,92.136,143.8,88.001z M143.8,136.643c0-4.136-3.341-7.477-7.477-7.477
						c-4.108,0-7.45,3.341-7.45,7.477c0,4.108,3.341,7.45,7.45,7.45C140.458,144.093,143.8,140.752,143.8,136.643z M125.422,63.789
						c0-4.136-3.341-7.477-7.477-7.477c-4.108,0-7.45,3.341-7.45,7.477c0,4.108,3.341,7.45,7.45,7.45
						C122.081,71.239,125.422,67.897,125.422,63.789z M125.422,112.459c0-4.108-3.341-7.45-7.477-7.45
						c-4.108,0-7.45,3.341-7.45,7.45c0,4.108,3.341,7.45,7.45,7.45C122.081,119.909,125.422,116.567,125.422,112.459z
						 M109.263,39.33c0-4.136-3.341-7.477-7.477-7.477c-4.108,0-7.45,3.341-7.45,7.477c0,4.108,3.341,7.45,7.45,7.45
						C105.921,46.78,109.263,43.439,109.263,39.33z M109.263,88.001c0-4.108-3.341-7.45-7.477-7.45c-4.108,0-7.45,3.341-7.45,7.45
						c0,4.136,3.341,7.477,7.45,7.477C105.921,95.478,109.263,92.136,109.263,88.001z M109.263,136.643
						c0-4.136-3.341-7.477-7.477-7.477c-4.108,0-7.45,3.341-7.45,7.477c0,4.108,3.341,7.45,7.45,7.45
						C105.921,144.093,109.263,140.752,109.263,136.643z M92.391,63.789c0-4.136-3.341-7.477-7.477-7.477
						c-4.108,0-7.45,3.341-7.45,7.477c0,4.108,3.341,7.45,7.45,7.45C89.05,71.239,92.391,67.897,92.391,63.789z M92.391,112.459
						c0-4.108-3.341-7.45-7.477-7.45c-4.108,0-7.45,3.341-7.45,7.45c0,4.108,3.341,7.45,7.45,7.45
						C89.05,119.909,92.391,116.567,92.391,112.459z M76.232,39.33c0-4.136-3.341-7.477-7.477-7.477c-4.108,0-7.45,3.341-7.45,7.477
						c0,4.108,3.341,7.45,7.45,7.45C72.89,46.78,76.232,43.439,76.232,39.33z M76.232,88.001c0-4.108-3.341-7.45-7.477-7.45
						c-4.108,0-7.45,3.341-7.45,7.45c0,4.136,3.341,7.477,7.45,7.477C72.89,95.478,76.232,92.136,76.232,88.001z M76.232,136.643
						c0-4.136-3.341-7.477-7.477-7.477c-4.108,0-7.45,3.341-7.45,7.477c0,4.108,3.341,7.45,7.45,7.45
						C72.89,144.093,76.232,140.752,76.232,136.643z"/>
				</g>
			</g>
		</g>
	</g>
</g>
<g>
</g>
<g>
</g>
<g>
</g>
<g>
</g>
<g>
</g>
<g>
</g>
<g>
</g>
<g>
</g>
<g>
</g>
<g>
</g>
<g>
</g>
<g>
</g>
<g>
</g>
<g>
</g>
<g>
</g>
</svg>
